<svg xmlns="http://www.w3.org/2000/svg" viewBox="0 0 720 320" role="img" aria-label="Sigmoid function mapping a score z to a probability between 0 and 1">
  <rect width="720" height="320" fill="#ffffff"/>
  <g stroke="#e6e6e6" stroke-width="1">
    <line x1="70" y1="260" x2="650" y2="260"/>
    <line x1="360" y1="40" x2="360" y2="260"/>
    <line x1="160" y1="40" x2="160" y2="260"/>
    <line x1="560" y1="40" x2="560" y2="260"/>
    <line x1="70" y1="210" x2="650" y2="210"/>
    <line x1="70" y1="160" x2="650" y2="160"/>
    <line x1="70" y1="110" x2="650" y2="110"/>
    <line x1="70" y1="60" x2="650" y2="60"/>
  </g>
  <line x1="70" y1="260" x2="650" y2="260" stroke="#111" stroke-width="2"/>
  <line x1="70" y1="260" x2="70" y2="40" stroke="#111" stroke-width="2"/>
  <path d="M 70 258 C 170 256, 250 240, 320 210 C 390 180, 430 120, 650 48" fill="none" stroke="#111" stroke-width="3"/>
  <line x1="70" y1="160" x2="650" y2="160" stroke="#999" stroke-dasharray="6 6" stroke-width="1.5"/>
  <circle cx="360" cy="160" r="6" fill="#111"/>
  <text x="372" y="154" font-family="Inter, Arial, sans-serif" font-size="13" fill="#111">Ă(0) = 0.5</text>
  <text x="655" y="264" font-family="Inter, Arial, sans-serif" font-size="13" fill="#111">z</text>
  <text x="48" y="50" font-family="Inter, Arial, sans-serif" font-size="13" fill="#111">Ă(z)</text>
  <text x="78" y="168" font-family="Inter, Arial, sans-serif" font-size="12" fill="#555">0.5</text>
  <text x="78" y="68" font-family="Inter, Arial, sans-serif" font-size="12" fill="#555">1</text>
</svg>
